General

[img]http://img.sceper.eu/images/21gunsfeat.jpg[/img]

Format                           : MPEG-4
File size                        : 76.3 MiB
Duration                         : 5mn 6s
Overall bit rate                 : 2 090 Kbps

Video

Format                           : AVC
Duration                         : 5mn 6s
Bit rate mode                    : Variable
Bit rate                         : 1,964 Kbps
Maximum bit rate                 : 4,221 Kbps
Width                            : 1,280 pixels
Height                           : 720 pixels
Display aspect ratio             : 16:9
Frame rate mode                  : Constant
Frame rate                       : 29.970 fps
Scan type                        : Progressive
Stream size                      : 71.7 MiB (94%)

Audio

Format                           : AAC
Duration                         : 5mn 6s
Bit rate mode                    : Variable
Bit rate                         : 123 Kbps
Maximum bit rate                 : 176 Kbps
Channel(s)                       : 2 channels
Channel positions                : L R
Sampling rate                    : 44.1 KHz
Resolution                       : 16 bits
Stream size                      : 4.49 MiB (6%)

screenshots

[img]http://img.sceper.eu/images/vlcsnasts.jpg[/img]
[img]http://img.sceper.eu/images/vlcsnacqc.jpg[/img]
[img]http://img.sceper.eu/images/vlcsnaisi.jpg[/img]